@startuml

class ConstructionProject {
    id: UUID
    name: String
    runtime: ProjectRuntime
    address: ProjectAddress
    type: ConstructionType
    customerName: String
}

class ProjectRuntime {
    start: Date
    end: Date
}

class ProjectAddress {
    streetAddress: String
    city: String
    postalCode: String
    country: String
}

enum ConstructionType {
    StructuralEngineering
    CivilEngineering
}

ConstructionProject *-- ProjectRuntime
ConstructionProject *-- ProjectAddress
ConstructionProject *-- ConstructionType

@enduml